HIERARCHY
ROOT root
{
	OFFSET 0.000000 0.000000 0.000000
	CHANNELS 6 Xposition Yposition Zposition Zrotation Yrotation Xrotation
	JOINT lhip
	{
		OFFSET 0.058581 -0.082280 -0.017664
		CHANNELS 3 Zrotation Yrotation Xrotation
		JOINT lknee
		{
			OFFSET 0.043451 -0.386469 0.008037
			CHANNELS 3 Zrotation Yrotation Xrotation
			JOINT lankle
			{
				OFFSET -0.014790 -0.426874 -0.037428
				CHANNELS 3 Zrotation Yrotation Xrotation
				JOINT ltoe
				{
					OFFSET 0.041054 -0.060286 0.122042
					CHANNELS 3 Zrotation Yrotation Xrotation
					End Site
					{
						OFFSET 0.000000 0.000000 0.000000
					}
				}
			}
		}
	}
	JOINT rhip
	{
		OFFSET -0.060310 -0.090513 -0.013543
		CHANNELS 3 Zrotation Yrotation Xrotation
		JOINT rknee
		{
			OFFSET -0.043257 -0.383688 -0.004843
			CHANNELS 3 Zrotation Yrotation Xrotation
			JOINT rankle
			{
				OFFSET 0.019056 -0.420046 -0.034562
				CHANNELS 3 Zrotation Yrotation Xrotation
				JOINT rtoe
				{
					OFFSET -0.034840 -0.062106 0.130323
					CHANNELS 3 Zrotation Yrotation Xrotation
					End Site
					{
						OFFSET 0.000000 0.000000 0.000000
					}
				}
			}
		}
	}
	JOINT lowerback
	{
		OFFSET 0.004439 0.124404 -0.038385
		CHANNELS 3 Zrotation Yrotation Xrotation
		JOINT upperback
		{
			OFFSET 0.004488 0.137956 0.026820
			CHANNELS 3 Zrotation Yrotation Xrotation
			JOINT chest
			{
				OFFSET -0.002265 0.056032 0.002855
				CHANNELS 3 Zrotation Yrotation Xrotation
				JOINT lowerneck
				{
					OFFSET -0.013390 0.211636 -0.033468
					CHANNELS 3 Zrotation Yrotation Xrotation
					JOINT upperneck
					{
						OFFSET 0.010113 0.088937 0.050410
						CHANNELS 3 Zrotation Yrotation Xrotation
						End Site
						{
							OFFSET 0.000000 0.000000 0.000000
						}
					}
				}
				JOINT lclavicle
				{
					OFFSET 0.071702 0.114000 -0.018898
					CHANNELS 3 Zrotation Yrotation Xrotation
					JOINT lshoulder
					{
						OFFSET 0.122921 0.045205 -0.019046
						CHANNELS 3 Zrotation Yrotation Xrotation
						JOINT lelbow
						{
							OFFSET 0.255332 -0.015649 -0.022946
							CHANNELS 3 Zrotation Yrotation Xrotation
							JOINT lwrist
							{
								OFFSET 0.265709 0.012698 -0.007375
								CHANNELS 3 Zrotation Yrotation Xrotation
								End Site
								{
									OFFSET 0.000000 0.000000 0.000000
								}
							}
						}
					}
				}
				JOINT rclavicle
				{
					OFFSET -0.082954 0.112472 -0.023707
					CHANNELS 3 Zrotation Yrotation Xrotation
					JOINT rshoulder
					{
						OFFSET -0.113228 0.046853 -0.008472
						CHANNELS 3 Zrotation Yrotation Xrotation
						JOINT relbow
						{
							OFFSET -0.260127 -0.014369 -0.031269
							CHANNELS 3 Zrotation Yrotation Xrotation
							JOINT rwrist
							{
								OFFSET -0.269108 0.006794 -0.006027
								CHANNELS 3 Zrotation Yrotation Xrotation
								End Site
								{
									OFFSET 0.000000 0.000000 0.000000
								}
							}
						}
					}
				}
			}
		}
	}
}
MOTION
Frames: 8
Frame Time: 0.033333
-0.197832 0.544474 0.985611 122.736025 -3.956795 86.140971 -9.287967 -0.170053 6.493468 -7.531921 1.864042 16.961295 5.829859 15.104315 -21.155327 0.000000 -0.000000 0.000000 0.336555 -4.852903 -17.539314 -4.584422 -22.668129 26.790005 -0.448091 -20.517410 -17.489980 0.000000 -0.000000 0.000000 -0.039602 -7.055275 2.753215 -1.769888 -6.313303 -5.707434 -2.872384 -3.292728 7.964905 -4.855692 -10.143059 9.411084 2.913370 -1.890695 11.081205 -12.761135 5.310869 -0.634186 -49.446186 -21.715994 13.119928 152.395352 -58.038444 -140.531536 8.711754 -1.844294 -49.776285 8.827447 -9.822071 -4.959948 61.906743 -5.305654 12.686629 -104.154667 59.843226 -95.810994 3.258819 6.244219 -40.814449 
-0.182326 0.553716 0.985842 120.020046 -3.634648 85.760853 -7.254636 0.734226 4.093729 -9.313252 4.936203 24.531829 3.480129 11.960511 -18.535520 0.000000 -0.000000 0.000000 0.918011 -4.523463 -15.608306 -3.896627 -21.501841 25.960251 -1.294156 -19.393640 -18.016063 0.000000 -0.000000 0.000000 0.896656 -7.043715 2.082587 -1.908257 -6.202907 -4.928951 -3.357436 -3.307716 7.640572 -5.401062 -10.373132 10.107437 2.835496 -0.148200 11.307777 -13.596421 6.824409 -0.365642 -49.374430 -19.955273 11.049044 150.113964 -58.615639 -138.384241 5.266979 -5.165481 -51.502998 7.986202 -11.653276 -4.140366 60.756123 -7.653898 9.699314 -103.237093 59.001983 -93.891750 8.413406 9.920595 -39.070258 
-0.167594 0.560348 0.986384 116.091888 -3.487224 85.291586 -4.384166 2.689529 -0.296922 -10.857458 8.756372 35.572805 0.272166 7.734481 -12.517832 0.000000 -0.000000 0.000000 1.932737 -4.123069 -14.039896 -3.745838 -19.170814 25.727699 -2.505724 -18.151280 -18.679800 0.000000 -0.000000 0.000000 1.034230 -6.617401 2.075574 -1.826422 -5.761685 -4.781775 -3.585410 -3.261116 7.725786 -5.655216 -10.548081 10.439845 2.991931 1.587753 11.718838 -14.082801 8.686018 -0.264556 -50.424260 -17.745282 9.943305 149.034526 -60.027051 -136.669999 4.182898 -6.042528 -51.790903 7.224384 -13.270668 -3.607508 60.089435 -9.077178 6.698509 -99.156130 58.788496 -89.280361 13.776852 13.294830 -37.421460 
-0.154790 0.565841 0.985987 111.514911 -3.286111 84.905560 -1.089041 5.148128 -5.538964 -11.472112 11.841588 47.516564 -2.417913 4.278971 -6.308627 0.000000 -0.000000 0.000000 2.953468 -4.200391 -12.552138 -3.328317 -16.383837 25.392791 -4.305888 -16.587595 -19.463298 0.000000 -0.000000 0.000000 1.249602 -6.374481 2.501739 -1.850465 -5.510112 -4.985672 -3.662537 -3.118933 7.652124 -6.064936 -10.497212 10.621744 3.366909 3.611343 12.061714 -14.625267 10.521626 0.140168 -51.822086 -14.463523 8.664633 149.496913 -61.924186 -135.901598 3.463143 -6.311776 -50.768310 6.525766 -14.190801 -2.693208 59.381350 -9.867121 3.560698 -94.783644 59.899907 -84.644036 17.808351 15.809184 -35.409962 
-0.143564 0.571652 0.984436 107.030735 -2.988054 84.058120 2.001570 7.303394 -9.875298 -12.010181 12.705025 57.931531 -3.491222 1.672550 -3.954640 0.000000 -0.000000 0.000000 3.498852 -4.572029 -11.002979 -2.557268 -13.525418 25.792120 -5.617979 -15.289248 -20.564921 0.000000 -0.000000 0.000000 1.660552 -6.316653 2.945588 -2.013371 -5.618556 -3.578344 -3.748042 -3.092215 6.789028 -6.304182 -10.160699 10.222050 3.656041 5.672068 12.569289 -15.781336 11.286233 0.854056 -53.404184 -10.736653 7.282876 149.788461 -64.192224 -134.980386 3.510816 -5.871322 -49.142536 6.298789 -13.952317 -1.772611 58.972033 -10.728211 0.814901 -90.569450 60.889284 -80.406684 20.392046 16.986939 -33.609578 
-0.135090 0.576041 0.982530 102.584133 -2.916770 83.449128 3.143453 7.215519 -14.101975 -10.347180 12.203566 65.162658 -2.079040 2.907621 -4.514371 0.000000 -0.000000 0.000000 3.909206 -3.395710 -10.790506 -2.143993 -10.778488 27.762122 -5.931602 -15.592961 -21.654866 0.000000 -0.000000 0.000000 1.549772 -6.098993 3.841444 -2.067515 -5.582599 -3.121102 -3.811094 -3.334825 6.465647 -6.209132 -9.913322 9.923379 3.750618 7.676262 12.661599 -17.437681 11.276881 2.026286 -54.615094 -8.116192 6.621528 147.813602 -67.585759 -132.405506 3.698205 -5.067944 -46.454763 6.614033 -13.489276 -1.229341 59.077888 -11.510024 -0.546822 -85.022820 61.095282 -75.316236 22.429427 17.507007 -31.387840 
-0.126221 0.581331 0.981150 98.441980 -3.616474 82.903416 3.663264 4.937324 -17.066501 -9.178345 11.670777 67.764836 0.640806 5.082365 -4.945325 0.000000 -0.000000 0.000000 3.203441 -2.287415 -10.449654 -1.632147 -8.567922 29.591318 -5.886769 -15.606808 -22.928269 0.000000 -0.000000 0.000000 0.836893 -5.514465 4.366680 -2.200901 -5.810667 -2.589294 -4.047947 -3.696836 6.178386 -6.265439 -9.434616 10.191854 3.904795 8.791109 12.279027 -18.861923 10.381450 3.322457 -55.919350 -6.640092 6.958030 140.003485 -72.447633 -125.095974 3.832531 -3.885469 -43.021834 7.109449 -12.840842 -0.521741 59.902541 -12.634113 -0.784108 -80.279081 60.894964 -70.462957 24.930951 17.584017 -28.672942 
-0.118962 0.584673 0.980209 94.355061 -4.162618 82.504664 4.738961 2.894992 -19.462828 -9.159249 9.520477 67.060562 2.207258 5.728427 -4.552532 0.000000 -0.000000 0.000000 2.844187 -1.317952 -10.033909 -0.983754 -5.993111 30.666196 -5.979715 -15.942468 -23.895543 0.000000 -0.000000 0.000000 0.085331 -4.878968 5.183993 -2.303089 -6.279359 -2.241900 -4.030114 -4.158274 5.767522 -6.647325 -8.699407 10.139272 4.218077 9.685121 11.951839 -20.027733 8.444898 4.264170 -56.701366 -6.166659 7.285608 119.914493 -77.624235 -106.237129 4.843314 -2.515695 -39.476798 7.529643 -11.804780 -0.022368 61.070114 -14.141186 -0.377905 -75.355694 61.814680 -65.316849 25.719635 17.258450 -26.656652 
